<svg id="visual" viewBox="0 0 900 30" width="900" height="30" xmlns="http://www.w3.org/2000/svg" xmlns:xlink="http://www.w3.org/1999/xlink" version="1.1"><rect x="0" y="0" width="900" height="30" fill="#020817"></rect><path d="M0 16L12.5 15.7C25 15.3 50 14.7 75 14.8C100 15 125 16 150 16.2C175 16.3 200 15.7 225 15.2C250 14.7 275 14.3 300 14.8C325 15.3 350 16.7 375 16.5C400 16.3 425 14.7 450 14.3C475 14 500 15 525 15.2C550 15.3 575 14.7 600 14.3C625 14 650 14 675 13.8C700 13.7 725 13.3 750 13.3C775 13.3 800 13.7 825 14.2C850 14.7 875 15.3 887.5 15.7L900 16L900 0L887.5 0C875 0 850 0 825 0C800 0 775 0 750 0C725 0 700 0 675 0C650 0 625 0 600 0C575 0 550 0 525 0C500 0 475 0 450 0C425 0 400 0 375 0C350 0 325 0 300 0C275 0 250 0 225 0C200 0 175 0 150 0C125 0 100 0 75 0C50 0 25 0 12.5 0L0 0Z" fill="#319fde"></path><path d="M0 11L12.5 11.2C25 11.3 50 11.7 75 12C100 12.3 125 12.7 150 12.7C175 12.7 200 12.3 225 12C250 11.7 275 11.3 300 11.7C325 12 350 13 375 13.2C400 13.3 425 12.7 450 12C475 11.3 500 10.7 525 10.7C550 10.7 575 11.3 600 11.7C625 12 650 12 675 11.7C700 11.3 725 10.7 750 10.7C775 10.7 800 11.3 825 11.5C850 11.7 875 11.3 887.5 11.2L900 11L900 0L887.5 0C875 0 850 0 825 0C800 0 775 0 750 0C725 0 700 0 675 0C650 0 625 0 600 0C575 0 550 0 525 0C500 0 475 0 450 0C425 0 400 0 375 0C350 0 325 0 300 0C275 0 250 0 225 0C200 0 175 0 150 0C125 0 100 0 75 0C50 0 25 0 12.5 0L0 0Z" fill="#3774a5"></path><path d="M0 10L12.5 9C25 8 50 6 75 5.3C100 4.7 125 5.3 150 6C175 6.7 200 7.3 225 7.8C250 8.3 275 8.7 300 8.2C325 7.7 350 6.3 375 6C400 5.7 425 6.3 450 6.5C475 6.7 500 6.3 525 6.5C550 6.7 575 7.3 600 7.7C625 8 650 8 675 8C700 8 725 8 750 8.2C775 8.3 800 8.7 825 8.8C850 9 875 9 887.5 9L900 9L900 0L887.5 0C875 0 850 0 825 0C800 0 775 0 750 0C725 0 700 0 675 0C650 0 625 0 600 0C575 0 550 0 525 0C500 0 475 0 450 0C425 0 400 0 375 0C350 0 325 0 300 0C275 0 250 0 225 0C200 0 175 0 150 0C125 0 100 0 75 0C50 0 25 0 12.5 0L0 0Z" fill="#2e4d6e"></path><path d="M0 2L12.5 2.7C25 3.3 50 4.7 75 4.7C100 4.7 125 3.3 150 3.2C175 3 200 4 225 4.2C250 4.3 275 3.7 300 3.8C325 4 350 5 375 4.8C400 4.7 425 3.3 450 3.2C475 3 500 4 525 4.7C550 5.3 575 5.7 600 5.8C625 6 650 6 675 5.8C700 5.7 725 5.3 750 4.7C775 4 800 3 825 2.7C850 2.3 875 2.7 887.5 2.8L900 3L900 0L887.5 0C875 0 850 0 825 0C800 0 775 0 750 0C725 0 700 0 675 0C650 0 625 0 600 0C575 0 550 0 525 0C500 0 475 0 450 0C425 0 400 0 375 0C350 0 325 0 300 0C275 0 250 0 225 0C200 0 175 0 150 0C125 0 100 0 75 0C50 0 25 0 12.5 0L0 0Z" fill="#1e293b"></path></svg>