<svg id="visual" viewBox="0 0 900 80" width="900" height="80" xmlns="http://www.w3.org/2000/svg" xmlns:xlink="http://www.w3.org/1999/xlink" version="1.1"><rect x="0" y="0" width="900" height="80" fill="#FFFFFF"></rect><path d="M0 66L8.8 65.7C17.7 65.3 35.3 64.7 53 64C70.7 63.3 88.3 62.7 106 60.5C123.7 58.3 141.3 54.7 159 55.3C176.7 56 194.3 61 212 61.3C229.7 61.7 247.3 57.3 265 55.3C282.7 53.3 300.3 53.7 318 54C335.7 54.3 353.3 54.7 371 54.8C388.7 55 406.3 55 423.8 57.2C441.3 59.3 458.7 63.7 476.2 65.3C493.7 67 511.3 66 529 65.5C546.7 65 564.3 65 582 65.2C599.7 65.3 617.3 65.7 635 63.5C652.7 61.3 670.3 56.7 688 54.8C705.7 53 723.3 54 741 56.2C758.7 58.3 776.3 61.7 794 63.7C811.7 65.7 829.3 66.3 847 65.5C864.7 64.7 882.3 62.3 891.2 61.2L900 60L900 0L891.2 0C882.3 0 864.7 0 847 0C829.3 0 811.7 0 794 0C776.3 0 758.7 0 741 0C723.3 0 705.7 0 688 0C670.3 0 652.7 0 635 0C617.3 0 599.7 0 582 0C564.3 0 546.7 0 529 0C511.3 0 493.7 0 476.2 0C458.7 0 441.3 0 423.8 0C406.3 0 388.7 0 371 0C353.3 0 335.7 0 318 0C300.3 0 282.7 0 265 0C247.3 0 229.7 0 212 0C194.3 0 176.7 0 159 0C141.3 0 123.7 0 106 0C88.3 0 70.7 0 53 0C35.3 0 17.7 0 8.8 0L0 0Z" fill="#319fde"></path><path d="M0 49L8.8 48.7C17.7 48.3 35.3 47.7 53 45.7C70.7 43.7 88.3 40.3 106 41C123.7 41.7 141.3 46.3 159 48C176.7 49.7 194.3 48.3 212 47.7C229.7 47 247.3 47 265 47.2C282.7 47.3 300.3 47.7 318 48.3C335.7 49 353.3 50 371 50C388.7 50 406.3 49 423.8 47.2C441.3 45.3 458.7 42.7 476.2 41.5C493.7 40.3 511.3 40.7 529 40.3C546.7 40 564.3 39 582 38C599.7 37 617.3 36 635 37.8C652.7 39.7 670.3 44.3 688 46.3C705.7 48.3 723.3 47.7 741 47.3C758.7 47 776.3 47 794 45.8C811.7 44.7 829.3 42.3 847 40.7C864.7 39 882.3 38 891.2 37.5L900 37L900 0L891.2 0C882.3 0 864.7 0 847 0C829.3 0 811.7 0 794 0C776.3 0 758.7 0 741 0C723.3 0 705.7 0 688 0C670.3 0 652.7 0 635 0C617.3 0 599.7 0 582 0C564.3 0 546.7 0 529 0C511.3 0 493.7 0 476.2 0C458.7 0 441.3 0 423.8 0C406.3 0 388.7 0 371 0C353.3 0 335.7 0 318 0C300.3 0 282.7 0 265 0C247.3 0 229.7 0 212 0C194.3 0 176.7 0 159 0C141.3 0 123.7 0 106 0C88.3 0 70.7 0 53 0C35.3 0 17.7 0 8.8 0L0 0Z" fill="#3774a5"></path><path d="M0 36L8.8 33.8C17.7 31.7 35.3 27.3 53 25.2C70.7 23 88.3 23 106 25.5C123.7 28 141.3 33 159 34.7C176.7 36.3 194.3 34.7 212 33.2C229.7 31.7 247.3 30.3 265 28.5C282.7 26.7 300.3 24.3 318 25.8C335.7 27.3 353.3 32.7 371 34C388.7 35.3 406.3 32.7 423.8 31.3C441.3 30 458.7 30 476.2 30.5C493.7 31 511.3 32 529 31.8C546.7 31.7 564.3 30.3 582 29C599.7 27.7 617.3 26.3 635 25.2C652.7 24 670.3 23 688 22.8C705.7 22.7 723.3 23.3 741 25C758.7 26.7 776.3 29.3 794 29.5C811.7 29.7 829.3 27.3 847 26.5C864.7 25.7 882.3 26.3 891.2 26.7L900 27L900 0L891.2 0C882.3 0 864.7 0 847 0C829.3 0 811.7 0 794 0C776.3 0 758.7 0 741 0C723.3 0 705.7 0 688 0C670.3 0 652.7 0 635 0C617.3 0 599.7 0 582 0C564.3 0 546.7 0 529 0C511.3 0 493.7 0 476.2 0C458.7 0 441.3 0 423.8 0C406.3 0 388.7 0 371 0C353.3 0 335.7 0 318 0C300.3 0 282.7 0 265 0C247.3 0 229.7 0 212 0C194.3 0 176.7 0 159 0C141.3 0 123.7 0 106 0C88.3 0 70.7 0 53 0C35.3 0 17.7 0 8.8 0L0 0Z" fill="#2e4d6e"></path><path d="M0 11L8.8 12.5C17.7 14 35.3 17 53 16.7C70.7 16.3 88.3 12.7 106 11.8C123.7 11 141.3 13 159 13.8C176.7 14.7 194.3 14.3 212 13.5C229.7 12.7 247.3 11.3 265 12.2C282.7 13 300.3 16 318 16.8C335.7 17.7 353.3 16.3 371 16.5C388.7 16.7 406.3 18.3 423.8 18.7C441.3 19 458.7 18 476.2 16.5C493.7 15 511.3 13 529 13.3C546.7 13.7 564.3 16.3 582 17.5C599.7 18.7 617.3 18.3 635 17.3C652.7 16.3 670.3 14.7 688 14C705.7 13.3 723.3 13.7 741 15.2C758.7 16.7 776.3 19.3 794 19.5C811.7 19.7 829.3 17.3 847 16.8C864.7 16.3 882.3 17.7 891.2 18.3L900 19L900 0L891.2 0C882.3 0 864.7 0 847 0C829.3 0 811.7 0 794 0C776.3 0 758.7 0 741 0C723.3 0 705.7 0 688 0C670.3 0 652.7 0 635 0C617.3 0 599.7 0 582 0C564.3 0 546.7 0 529 0C511.3 0 493.7 0 476.2 0C458.7 0 441.3 0 423.8 0C406.3 0 388.7 0 371 0C353.3 0 335.7 0 318 0C300.3 0 282.7 0 265 0C247.3 0 229.7 0 212 0C194.3 0 176.7 0 159 0C141.3 0 123.7 0 106 0C88.3 0 70.7 0 53 0C35.3 0 17.7 0 8.8 0L0 0Z" fill="#1e293b"></path></svg>